<svg xmlns="http://www.w3.org/2000/svg" width="48" height="32" viewBox="0 0 48 32">
  <rect width="48" height="32" rx="4" fill="white"/>
  <path d="M17.9 11.5L15.3 20.5H12.5L14.4 12.6C14.5 12.2 14.7 11.9 15.1 11.7C15.9 11.3 16.8 11.1 17.7 11.1C18.6 11.1 19.4 11.3 19.9 11.5H17.9ZM26.8 16.1C26.8 14.9 26.2 14 24.6 13.3C23.4 12.8 22.7 12.4 22.7 11.8C22.7 11.2 23.3 10.6 24.6 10.6C25.6 10.6 26.4 10.8 27 11.1L27.3 11.3L27.7 9C26.9 8.7 26 8.5 25 8.5C22.4 8.5 20.5 9.9 20.5 11.9C20.5 13 21.4 13.9 22.9 14.6C24 15.1 24.5 15.6 24.5 16.3C24.5 17.1 23.8 17.5 22.8 17.5C21.7 17.5 20.8 17.2 20.1 16.8L19.7 16.6L19.3 18.8C20.1 19.2 21.3 19.5 22.5 19.5C25.3 19.5 26.8 18.1 26.8 16.1ZM32.4 11.5L30 20.5H27.3L29.7 11.5H32.4ZM35.7 11.5L33.3 20.5H30.6L33 11.5H35.7ZM39.9 11.7C39.4 11.5 38.6 11.3 37.7 11.3C35.8 11.3 34.4 12.4 34.4 13.9C34.4 15.2 35.6 15.9 36.5 16.3C37.5 16.7 37.8 17 37.8 17.5C37.8 18.2 37 18.5 36.2 18.5C35.3 18.5 34.5 18.3 33.9 17.9L33.5 17.7L33.1 19.8C33.8 20.2 34.8 20.5 35.9 20.5C37.9 20.5 39.3 19.4 39.3 18C39.3 16.6 38.2 15.9 37.3 15.5C36.4 15.1 36.1 14.8 36.1 14.3C36.1 13.8 36.6 13.3 37.5 13.3C38.3 13.3 38.9 13.5 39.4 13.8L39.8 14L40.2 11.9C39.6 11.6 38.8 11.5 39.9 11.7Z" fill="#1434CB"/>
</svg>
